<svg xmlns="http://www.w3.org/2000/svg" viewBox="0 0 23.47 24.81">
  <path d="M0 9.91l.04 5.12a7.28 7.28 0 0 0 3.68 6.29l4.45 2.53a7.29 7.29 0 0 0 7.27-.03l4.42-2.6a7.28 7.28 0 0 0 3.6-6.32l-.03-5.12a7.28 7.28 0 0 0-3.67-6.29L15.3.96A7.28 7.28 0 0 0 8.02 1L3.6 3.59A7.28 7.28 0 0 0 0 9.9" fill="#00d8ff"/>
  <path d="M15.91 15.58a3.83 3.83 0 0 1 .93.35 1.52 1.52 0 0 1 .79 1.46 1.42 1.42 0 0 1-1.44 1.32 1.52 1.52 0 0 1-1.25-.72 2.78 2.78 0 0 1-.39-1 8 8 0 0 0-.26-.96 3.3 3.3 0 0 0-.64-1.03 11.9 11.9 0 0 0-.85-.9 3.03 3.03 0 0 0-1.55-.81 3.82 3.82 0 0 0-1.65.11l-.72.18a3.47 3.47 0 0 0-1.47.83c-.27.25-.52.52-.8.74a1.73 1.73 0 0 1-1.18.39 1.46 1.46 0 0 1-1.35-1.3 1.48 1.48 0 0 1 1.38-1.59 2.15 2.15 0 0 1 .83.09l.71.2a3.78 3.78 0 0 0 1.23.17 5.07 5.07 0 0 0 .86-.14l.83-.21a2.97 2.97 0 0 0 1.3-.72 3.01 3.01 0 0 0 .72-1.06c.14-.35.23-.7.34-1.06a4.05 4.05 0 0 0 .2-1.19 4.18 4.18 0 0 0-.13-.9 6.03 6.03 0 0 1-.23-1.21 1.6 1.6 0 0 1 .4-1.15 1.44 1.44 0 0 1 2.36.29 1.48 1.48 0 0 1 .02 1.32 3.17 3.17 0 0 1-.84 1.04 3.94 3.94 0 0 0-.89 1.06 4.93 4.93 0 0 0-.2.46 9.1 9.1 0 0 0-.31 1.01 3.54 3.54 0 0 0-.16 1.37 3.05 3.05 0 0 0 .3 1.03 4.32 4.32 0 0 0 .71.95c.22.24.44.48.68.7a3.44 3.44 0 0 0 1.11.68c.21.08.43.13.62.2" fill="#4d4f54"/>
  <path d="M16.66 12.85a3.84 3.84 0 0 1 .96-.22 1.53 1.53 0 0 1 1.47.8 1.43 1.43 0 0 1-.48 1.89 1.52 1.52 0 0 1-1.45.09 2.8 2.8 0 0 1-.87-.63 7.47 7.47 0 0 0-.74-.67 3.36 3.36 0 0 0-1.1-.53c-.4-.11-.8-.21-1.2-.28a3 3 0 0 0-1.74.15 3.84 3.84 0 0 0-1.32 1l-.51.53a3.52 3.52 0 0 0-.8 1.49c-.08.36-.15.71-.26 1.06a1.72 1.72 0 0 1-.78 1 1.46 1.46 0 0 1-1.85-.36 1.48 1.48 0 0 1 .28-2.1 2.17 2.17 0 0 1 .74-.37l.72-.21a3.77 3.77 0 0 0 1.11-.53 4.95 4.95 0 0 0 .65-.6c.2-.2.4-.41.59-.63a2.98 2.98 0 0 0 .69-1.3 3.05 3.05 0 0 0 .03-1.28c-.07-.37-.18-.73-.3-1.09a3.95 3.95 0 0 0-.47-1.08 4.25 4.25 0 0 0-.59-.7 5.98 5.98 0 0 1-.85-.88 1.59 1.59 0 0 1-.28-1.18 1.44 1.44 0 0 1 2.11-1.04 1.47 1.47 0 0 1 .75 1.1A3.17 3.17 0 0 1 11 7.62a3.9 3.9 0 0 0-.12 1.36 4.3 4.3 0 0 0 .08.49 8.73 8.73 0 0 0 .28 1.03 3.53 3.53 0 0 0 .61 1.23 3.04 3.04 0 0 0 .82.7 4.32 4.32 0 0 0 1.11.41c.31.08.63.16.94.22a3.44 3.44 0 0 0 1.31-.04l.63-.16" fill="#4d4f54"/>
</svg>