<svg xmlns="http://www.w3.org/2000/svg" viewBox="0 0 89 94.12">
  <path d="M0 37.66l.09 19.33a27.65 27.65 0 0 0 13.93 23.86l16.87 9.64a27.66 27.66 0 0 0 27.63-.13l16.78-9.8a27.59 27.59 0 0 0 13.7-24l-.09-19.43a27.6 27.6 0 0 0-13.92-23.86L58.12 3.66a27.66 27.66 0 0 0-27.63.13l-16.79 9.8a27.63 27.63 0 0 0-13.7 24" fill="#ffffff"/>
  <path d="M38.53 30.91a5.09 5.09 0 0 1 0-8.5 9.63 9.63 0 0 1 5.93-1.71 10 10 0 0 1 5.94 1.64 4.93 4.93 0 0 1 2.29 4.12 5.37 5.37 0 0 1-2.29 4.42 11.07 11.07 0 0 1-11.87 0zm-.68 6.86h13.27v36.89H37.85z" fill="#4d4f54"/>
</svg>