<svg viewBox="0 0 23.44 24.82" xmlns="http://www.w3.org/2000/svg">
  <path d="M0 9.93l.02 5.1c.03 2.62 1.43 5 3.68 6.3l4.45 2.54a7.23 7.23 0 0 0 7.27-.05l4.42-2.6a7.26 7.26 0 0 0 3.6-6.32l-.03-5.13c-.03-2.6-1.43-5-3.68-6.3L15.32.96A7.23 7.23 0 0 0 8.04 1L3.62 3.6A7.28 7.28 0 0 0 0 9.92" fill="#00d8ff"/>
  <path class="st1" d="M14.28 17.47c.22.29.43.53.53.82.24.58.19 1.16-.24 1.64-.47.55-1.37.63-1.95.18a1.6 1.6 0 0 1-.59-1.32c0-.37.16-.69.3-1.03.13-.32.29-.61.37-.93.1-.4.13-.8.1-1.22s-.08-.82-.13-1.24a3.04 3.04 0 0 0-.74-1.59c-.4-.42-.87-.68-1.38-.9-.24-.1-.45-.2-.69-.29a3.56 3.56 0 0 0-1.66-.24c-.37.03-.72.11-1.09.11-.45 0-.84-.1-1.16-.4a1.45 1.45 0 0 1-.3-1.85c.46-.71 1.36-.9 2.07-.45.24.16.45.35.61.58l.45.61a3.42 3.42 0 0 0 1.67 1.27c.26.1.53.24.8.35a3.06 3.06 0 0 0 2.66-.19c.32-.18.61-.42.93-.63a3.55 3.55 0 0 0 1.3-1.62c.15-.37.29-.77.55-1.08.27-.35.58-.58 1-.66.5-.11.99.05 1.33.42.32.34.45.77.37 1.22-.08.47-.37.84-.8 1.08-.4.21-.84.27-1.29.32s-.93.1-1.35.32c-.16.08-.3.15-.42.23-.32.19-.59.4-.88.61-.37.3-.71.58-.95.98-.18.32-.32.64-.4 1-.05.4-.05.8 0 1.2.03.32.06.63.14.95.08.42.23.85.47 1.22.14.18.27.37.37.53" fill="#242265"/>
  <path class="st1" d="M15.6 14.34c.35.06.67.08.96.22.58.26.95.68 1 1.32.06.74-.5 1.43-1.24 1.5-.56.06-.98-.13-1.35-.52-.24-.27-.4-.61-.5-.93-.13-.32-.24-.63-.4-.92-.18-.37-.45-.67-.77-.93s-.63-.53-.97-.77a3.03 3.03 0 0 0-1.64-.6 3.69 3.69 0 0 0-1.62.34l-.69.26c-.53.24-.98.58-1.35 1.03-.23.3-.45.59-.68.85-.32.32-.7.5-1.12.56-.66.05-1.34-.4-1.5-1.11a1.47 1.47 0 0 1 1.13-1.78c.27-.05.56-.08.85-.02.24.02.5.08.74.1.43.05.82.05 1.25 0 .29-.05.55-.16.84-.26l.8-.32c.45-.21.87-.48 1.19-.87.26-.35.47-.72.58-1.14.08-.37.13-.74.18-1.11.06-.4.08-.8.03-1.2a4.72 4.72 0 0 0-.24-.87c-.13-.4-.32-.74-.4-1.16-.05-.42 0-.82.24-1.2.3-.41.72-.65 1.25-.63.47 0 .84.24 1.13.61.3.4.35.85.22 1.33-.14.45-.43.79-.72 1.13s-.58.74-.74 1.17c-.05.16-.1.32-.13.47-.08.35-.13.7-.19 1.06-.05.45-.1.93.03 1.38.1.34.24.69.45.98a8.6 8.6 0 0 0 1.59 1.46c.37.26.76.42 1.19.52.18 0 .4.03.6.05" fill="#242265"/>
</svg>