<?xml version="1.0" encoding="utf-8"?>
<!-- Generator: Adobe Illustrator 23.0.3, SVG Export Plug-In . SVG Version: 6.00 Build 0)  -->
<svg version="1.1" id="Layer_1" xmlns="http://www.w3.org/2000/svg" xmlns:xlink="http://www.w3.org/1999/xlink" x="0px"
     y="0px"
     viewBox="0 0 762 1026" style="enable-background:new 0 0 762 1026;" xml:space="preserve">
<style type="text/css">
	.st0{fill:#242265;}
	.st1{fill:#F16322;}
	.st2{fill:#222160;}
</style>
  <path class="st0" d="M64.94,314.56l0.63,136.54c0.31,69.36,37.62,133.27,97.84,167.69l118.57,67.72
	c60.23,34.4,134.23,34.04,194.13-0.9l117.93-68.84c59.9-34.97,96.6-99.2,96.27-168.56l-0.63-136.56
	c-0.33-69.36-37.62-133.27-97.84-167.64L473.27,76.26c-60.23-34.4-134.21-34.05-194.11,0.9l-117.96,68.84
	C101.31,180.93,64.61,245.19,64.94,314.56"/>
  <path class="st1" d="M249.05,336.39c-9.35,0.02-17.94,0.47-26.32-1.75c-16.52-4.37-27.62-14.37-31.76-31.25
	c-4.71-19.24,7.7-39.71,26.79-44.93c14.2-3.88,26.53-0.21,37.74,8.62c7.72,6.09,12.65,14.34,17.43,22.7
	c4.44,7.76,8.65,15.69,14.06,22.82c6.62,8.73,14.88,15.67,24.19,21.52c9.37,5.89,18.88,11.53,28.75,16.46
	c14.32,7.15,29.39,10.89,45.71,9.11c15.25-1.66,28.63-7.79,41.51-15.47c5.69-3.39,11.48-6.6,17.12-10.09
	c13.22-8.2,23.48-19.14,31.33-32.43c4.94-8.36,9.32-17.05,15.04-24.93c6.9-9.5,15.77-16.22,27.36-18.93
	c17.15-4,37.29,4.81,44.49,23.01c8.17,20.66-2.16,43.08-23.09,51.44c-7.06,2.82-14.37,4.13-21.95,4.11
	c-6.64-0.02-13.29-0.04-19.93,0c-11.13,0.07-22.04,1.65-32.57,5.3c-7.47,2.6-14.35,6.52-21.21,10.4
	c-6.68,3.78-13.32,7.65-19.8,11.76c-11.36,7.19-20.87,16.26-27.54,28.09c-5.74,10.18-9.45,21.05-10.53,32.7
	c-0.92,9.97-0.74,19.98-0.69,29.99c0.05,10.6,0.75,21.11,3.9,31.33c2.42,7.85,5.98,15.17,9.95,22.32c5.31,9.56,11.68,18.55,15,29.18
	c3.44,11.02,3.49,21.88-1.52,32.31c-6.07,12.65-16.14,20.22-30.27,22c-12.64,1.59-23.54-2.5-32.2-11.39
	c-9.08-9.33-12.4-20.99-10.72-33.99c1.58-12.28,7.77-22.57,14.01-32.88c6.43-10.64,12.26-21.59,14.68-33.99
	c0.85-4.34,1.24-8.73,1.6-13.13c0.8-9.51,0.8-19.04,0.47-28.55c-0.43-12.28-1.17-24.58-6.31-36.1c-3.98-8.94-8.85-17.22-15.75-24.28
	c-7.45-7.63-16.06-13.58-25.23-18.94c-7.47-4.36-14.87-8.84-22.65-12.63c-10.65-5.2-21.88-8.14-33.75-9.05
	C260.34,336.4,254.3,336.69,249.05,336.39z"/>
  <g id="yWorks_80_">
	<path class="st2" d="M309.21,885.28c0-33.39,23.96-56.86,57.84-56.86c33.87,0,58.07,23.47,58.07,56.86
		c0,33.39-24.2,57.11-58.07,57.11C333.16,942.39,309.21,918.67,309.21,885.28 M398.25,885.28c0-19.84-12.57-33.63-31.2-33.63
		c-18.4,0-31.23,13.79-31.23,33.63c0,19.84,12.82,33.64,31.23,33.64C385.68,918.92,398.25,905.12,398.25,885.28"/>
    <path class="st2" d="M515.1,833.5l-6.78,22.27c-4.11-1.45-8.46-2.43-14.03-2.43c-15.24,0-25.65,9.92-25.65,27.11v58.79h-26.37
		V831.32h17.91l5.08,15.97c6.3-12.1,17.18-18.4,31.22-18.4C503.96,828.9,510.02,830.6,515.1,833.5"/>
    <path class="st1" d="M179.5,831.32v0.73L122.85,975.3H94.78v-0.48l16.96-38.23L65.52,832.05v-0.73h28.56l30.25,76.22
		c2.67,6.53-2.18-7.99,0,0c2.17-7.99,4.36-14.52,6.53-21.05l21.05-55.17H179.5z"/>
    <path class="st2" d="M281.38,831.32l-16.69,47.91c-1.46,4.11-2.91,8.47-4.11,13.32c-1.93-4.84-3.87-9.2-6.3-13.55l-21.05-42.35
		h-5.56L206.61,879c-2.18,4.35-4.11,8.46-6.05,13.31c-1.22-4.6-2.43-8.71-3.87-13.07l-12.5-35.88l-14.42,36.46l22.57,60.41h7.99
		l30.24-60.26l30.01,60.26h8.23l40.41-108.17v-0.72H281.38z"/>
    <path class="st2" d="M661.27,875.12c-11.62-4.11-19.61-8.23-19.61-15.25c0-6.78,7.02-9.19,15.26-9.19c7.25,0,15.96,2.18,23.95,6.3
		l9.19-17.67c-11.61-6.78-22.98-9.68-35.32-9.68c-20.56,0-38.23,10.4-38.23,30.24c0,17.67,13.31,26.62,30.5,33.15
		c10.63,4.11,20.81,7.99,20.81,15.98c0,6.78-6.3,11.13-15.97,11.13c-10.17,0-20.32-3.15-29.53-8.96l-1.74-1.22v24.56
		c10.07,4.76,20.83,7.15,33.2,7.15c23.71,0,39.93-12.58,39.93-32.66C693.69,891.08,680.15,882.13,661.27,875.12"/>
    <polygon class="st2" points="608.3,924.64 573.12,883.59 608.3,841.65 608.3,831.32 586.18,831.32 550.36,874.15 550.36,794.05
		523.99,794.05 523.99,939.25 550.36,939.25 550.36,893.27 589.08,939.25 608.3,939.25 	"/>
</g>
</svg>
